<mxfile host="app.diagrams.net" agent="Mozilla/5.0 (Windows NT 10.0; Win64; x64) AppleWebKit/537.36 (KHTML, like Gecko) Chrome/135.0.0.0 Safari/537.36" version="26.2.13">
  <diagram name="PÃ¡gina-1" id="BEuq-t_kYJdBiVio8f-t">
    <mxGraphModel dx="1428" dy="751" grid="1" gridSize="10" guides="1" tooltips="1" connect="1" arrows="1" fold="1" page="1" pageScale="1" pageWidth="827" pageHeight="1169" math="0" shadow="0">
      <root>
        <mxCell id="0" />
        <mxCell id="1" parent="0" />
        <mxCell id="ydwnG5G3BiwxjP9VTqRa-17" style="edgeStyle=orthogonalEdgeStyle;rounded=0;orthogonalLoop=1;jettySize=auto;html=1;" edge="1" parent="1" source="ydwnG5G3BiwxjP9VTqRa-1" target="ydwnG5G3BiwxjP9VTqRa-3">
          <mxGeometry relative="1" as="geometry" />
        </mxCell>
        <mxCell id="ydwnG5G3BiwxjP9VTqRa-1" value="User" style="shape=umlActor;verticalLabelPosition=bottom;verticalAlign=top;html=1;outlineConnect=0;" vertex="1" parent="1">
          <mxGeometry x="70" y="430" width="30" height="60" as="geometry" />
        </mxCell>
        <mxCell id="ydwnG5G3BiwxjP9VTqRa-11" style="edgeStyle=orthogonalEdgeStyle;rounded=0;orthogonalLoop=1;jettySize=auto;html=1;" edge="1" parent="1" source="ydwnG5G3BiwxjP9VTqRa-2" target="ydwnG5G3BiwxjP9VTqRa-6">
          <mxGeometry relative="1" as="geometry" />
        </mxCell>
        <mxCell id="ydwnG5G3BiwxjP9VTqRa-2" value="Data" style="shape=cylinder3;whiteSpace=wrap;html=1;boundedLbl=1;backgroundOutline=1;size=15;" vertex="1" parent="1">
          <mxGeometry x="180" y="120" width="60" height="80" as="geometry" />
        </mxCell>
        <mxCell id="ydwnG5G3BiwxjP9VTqRa-10" style="edgeStyle=orthogonalEdgeStyle;rounded=0;orthogonalLoop=1;jettySize=auto;html=1;entryX=0;entryY=0.5;entryDx=0;entryDy=0;" edge="1" parent="1" source="ydwnG5G3BiwxjP9VTqRa-3" target="ydwnG5G3BiwxjP9VTqRa-5">
          <mxGeometry relative="1" as="geometry" />
        </mxCell>
        <mxCell id="ydwnG5G3BiwxjP9VTqRa-3" value="Streamlit UI" style="rounded=1;whiteSpace=wrap;html=1;" vertex="1" parent="1">
          <mxGeometry x="180" y="440" width="120" height="60" as="geometry" />
        </mxCell>
        <mxCell id="ydwnG5G3BiwxjP9VTqRa-13" style="edgeStyle=orthogonalEdgeStyle;rounded=0;orthogonalLoop=1;jettySize=auto;html=1;entryX=0;entryY=0.5;entryDx=0;entryDy=0;" edge="1" parent="1" source="ydwnG5G3BiwxjP9VTqRa-5" target="ydwnG5G3BiwxjP9VTqRa-7">
          <mxGeometry relative="1" as="geometry" />
        </mxCell>
        <mxCell id="ydwnG5G3BiwxjP9VTqRa-14" style="edgeStyle=orthogonalEdgeStyle;rounded=0;orthogonalLoop=1;jettySize=auto;html=1;" edge="1" parent="1" source="ydwnG5G3BiwxjP9VTqRa-5" target="ydwnG5G3BiwxjP9VTqRa-8">
          <mxGeometry relative="1" as="geometry" />
        </mxCell>
        <mxCell id="ydwnG5G3BiwxjP9VTqRa-15" style="edgeStyle=orthogonalEdgeStyle;rounded=0;orthogonalLoop=1;jettySize=auto;html=1;entryX=0.5;entryY=0;entryDx=0;entryDy=0;" edge="1" parent="1" source="ydwnG5G3BiwxjP9VTqRa-5" target="ydwnG5G3BiwxjP9VTqRa-9">
          <mxGeometry relative="1" as="geometry" />
        </mxCell>
        <mxCell id="ydwnG5G3BiwxjP9VTqRa-5" value="Orchestrator Agent" style="ellipse;whiteSpace=wrap;html=1;" vertex="1" parent="1">
          <mxGeometry x="340" y="430" width="120" height="80" as="geometry" />
        </mxCell>
        <mxCell id="ydwnG5G3BiwxjP9VTqRa-6" value="Data Ingest Agent" style="ellipse;whiteSpace=wrap;html=1;" vertex="1" parent="1">
          <mxGeometry x="330" y="280" width="120" height="80" as="geometry" />
        </mxCell>
        <mxCell id="ydwnG5G3BiwxjP9VTqRa-7" value="Analyst Agent" style="ellipse;whiteSpace=wrap;html=1;" vertex="1" parent="1">
          <mxGeometry x="540" y="320" width="120" height="80" as="geometry" />
        </mxCell>
        <mxCell id="ydwnG5G3BiwxjP9VTqRa-8" value="Interpretation Agent" style="ellipse;whiteSpace=wrap;html=1;" vertex="1" parent="1">
          <mxGeometry x="550" y="450" width="120" height="80" as="geometry" />
        </mxCell>
        <mxCell id="ydwnG5G3BiwxjP9VTqRa-20" style="edgeStyle=orthogonalEdgeStyle;rounded=0;orthogonalLoop=1;jettySize=auto;html=1;" edge="1" parent="1" source="ydwnG5G3BiwxjP9VTqRa-9" target="ydwnG5G3BiwxjP9VTqRa-19">
          <mxGeometry relative="1" as="geometry" />
        </mxCell>
        <mxCell id="ydwnG5G3BiwxjP9VTqRa-9" value="Report Agent" style="ellipse;whiteSpace=wrap;html=1;" vertex="1" parent="1">
          <mxGeometry x="460" y="580" width="120" height="80" as="geometry" />
        </mxCell>
        <mxCell id="ydwnG5G3BiwxjP9VTqRa-12" style="edgeStyle=orthogonalEdgeStyle;rounded=0;orthogonalLoop=1;jettySize=auto;html=1;entryX=0.583;entryY=1;entryDx=0;entryDy=0;entryPerimeter=0;" edge="1" parent="1" source="ydwnG5G3BiwxjP9VTqRa-5" target="ydwnG5G3BiwxjP9VTqRa-6">
          <mxGeometry relative="1" as="geometry" />
        </mxCell>
        <mxCell id="ydwnG5G3BiwxjP9VTqRa-19" value="Report" style="shape=note;whiteSpace=wrap;html=1;backgroundOutline=1;darkOpacity=0.05;" vertex="1" parent="1">
          <mxGeometry x="500" y="710" width="80" height="100" as="geometry" />
        </mxCell>
      </root>
    </mxGraphModel>
  </diagram>
</mxfile>
